<?xml version="1.0" encoding="utf-8"?>
<!-- Generator: Adobe Illustrator 25.0.0, SVG Export Plug-In . SVG Version: 6.00 Build 0)  -->
<svg version="1.1" id="Layer_1" xmlns="http://www.w3.org/2000/svg" xmlns:xlink="http://www.w3.org/1999/xlink" x="0px" y="0px"
	 viewBox="0 0 171.1 256.1" style="enable-background:new 0 0 171.1 256.1;" xml:space="preserve">
<style type="text/css">
	.st0{clip-path:url(#SVGID_2_);}
	.st1{fill:#FDE9E4;}
	.st2{fill:#F7F6F8;}
	.st3{clip-path:url(#SVGID_4_);}
	.st4{fill:#A4D8DF;stroke:#000000;stroke-width:0.5;stroke-miterlimit:10;}
	.st5{fill:#6C8E6D;stroke:#0D2327;stroke-width:0.5;stroke-miterlimit:10;}
	.st6{fill:#6C8E6D;stroke:#0C2327;stroke-width:0.5;stroke-miterlimit:10;}
	.st7{fill:none;stroke:#0D2327;stroke-width:0.5;stroke-miterlimit:10;}
	.st8{opacity:0.78;fill:#FFFFFF;stroke:#F7F6F8;stroke-width:2;stroke-miterlimit:10;enable-background:new    ;}
	.st9{fill:#FDE9E4;stroke:#E5E5E8;stroke-width:2;stroke-miterlimit:10;}
	.st10{fill:#656564;}
	.st11{font-family:'AmaticSC-Bold';}
	.st12{font-size:60px;}
</style>
<g id="ticket_back">
	<g>
		<defs>
			<rect id="SVGID_1_" x="0.1" y="0" width="170.9" height="256.1"/>
		</defs>
		<clipPath id="SVGID_2_">
			<use xlink:href="#SVGID_1_"  style="overflow:visible;"/>
		</clipPath>
		<g class="st0">
			<rect x="10" y="10.9" class="st1" width="151.8" height="234.4"/>
			<path class="st2" d="M153.3,23.8v209.1H18.9V23.8H153.3 M155.3,21.8H16.9v213.1h138.4V21.8z"/>
			<g>
				<defs>
					<rect id="SVGID_3_" x="18.9" y="23.8" width="134.4" height="209.1"/>
				</defs>
				<clipPath id="SVGID_4_">
					<use xlink:href="#SVGID_3_"  style="overflow:visible;"/>
				</clipPath>
				<g class="st3">
					<g id="background">
						<rect x="-82.8" y="17.5" class="st4" width="340.8" height="219.8"/>
						<path class="st5" d="M-39.3,17.5c8,0.8,26-4.3,24.3,9.4c-1.4,1.6-6.5,6.7-3,8c0.1,2.2,3-1,4.1,1.3c2.6,3.9,2.8,9.9,5.5,14.7
							c1.7,3.5,7.7,2.2,6,9.6c1.1,0.3,1.3,2.3,1.4,3.4c4,4.1,0.4,3.6,0.2,6.1c8.8-2.9,12.1,1.8,7.6,12c4.3,5.3-2.6,5.8-4.6,9.2
							c-5.2-0.6-10.7,3.6-16,3.1c-1-1.1-2,0.8-2.7,1.5c-2.5,1.5-3.7-3.2-6.4-2.1c-4.1,2.3-0.6,5.1-8,3.8c-4.1,4.3-12.5,3.6-4.4-2.3
							c0.1-1.7,2-2.8,3-4c0.1-1.4,0.1-2.5,1.6-2.1c1.1-1.1,1.6-2.7,3.4-2.3c4.1-3.5-15.3-5.4-8-9.2c4.7,3.4,11.3-8.7,3.6-6.9
							c-1.8-1.4,2.7-1.5,1.4-4c-1.9-7.3,8.9,6.1,8.2-8.8c-1.3-2.2-4.3-2.6-4.4-5.9c-16.7,0.6,1.7-11.7-9.9-14.7
							c-0.6-2.6-5.8-7.4-2.5-9.1c-1.2-1-2.4-3,0-3.3C-39.3,23.9-39.4,18.9-39.3,17.5z"/>
						<path class="st5" d="M73.2,17.5c1.2,2.9,48.9-6.5,39.8,5.4c-3.3,1.5,3.4,6.4-2.7,7.6c-6.4-0.4-4.2,9.8-7.5,13.8
							c-0.9,6.4-9.3,0.5-12.1,5c5,7.3-11.8,12.1-8.9,3.8c-2.9-3,0.8-6.7,0-10.5C78.8,34.8,74,27.1,73.2,17.5z"/>
						<path class="st5" d="M108.9,36.6c-0.7,1.9-2.2,11.3-4.3,7.8C104.6,42.3,108.6,31.5,108.9,36.6z"/>
						<path class="st5" d="M125.4,28.2c-2.2,0.3-2,2.2-2.7,4.2c-0.9,0.3-2.3,1.3-2,2.6c-7.5,13.8-5.1-11,3.3-8.1
							C125.5,25,125.5,26.5,125.4,28.2z"/>
						<path class="st6" d="M158.5,17.5H258l0,219.8h-83.3c0.1-8.8-2.9-5.3-7.6-7.8c-2.7-4.4-1-10-6-12.6c1.8-4.1,3,0.8,5.3,0
							c1.9-0.8-1.3-1.6,0.5-3.8c-0.7-2.3-3.9-4-0.5-4.2c1-4.5-8.5,4.7-3.9-7.8c3.9-1.5,6.8,0.8,10.1-1.3c3-0.1,4.7,2.1,7.6,1.5
							c-1.4-11.5,3.1-3.6,13-5.5c5.2-2.1,8.3-8.5,14.4-8c4.1,1.8,9.5-2.1,12.2,2.7c4.5,3.8,2.3-1.8,6,4c8.7,2.6,27.3,9.8,26.6-8.6
							c-1.6-11.5-4.9-11.7-12.1-17c-7.4-2.1,0.3-4.6-10.5-6.7c1.2-2.2,2.5-2.3,5.3-2.5c0.6-1.7,1.2-3.2,3-3.6c0.5-3.1,4.1-4.7,0-6.9
							c-0.2-2.9,6.7,0.8,5.9-3.1c10.5-4.9-7.2-3-9.8,0c-6.1,1.1-20.7,3.2-13.3,12.8c2.3,2.1,9-1.8,8.2,3.8c-5.1,0.6-9-2.2-11,5.2
							c-1.7,4.6-10-1.2-8.2-5.9c-1.9-1.5-4.8-3.3-7.1-3.6c-0.2-1.7,2.8-0.7,3.7-1.5c-0.3-3.5,7.2-2,1.8-5.2c-5.9,1-2,5.6-6.2-2.9
							c-2.6-0.9-6.7-2.5-9.4-1.4c-0.2,4.9-7.4,8-6.4,14c-1.3,2.2-4.3,2.6-6,4.2c-1.7,4,0,12.7-6,8.8c-0.6,3.8,1.6,9-3.2,8.4
							c3.4,3.4,4,8.7,7.5,12c-5.9,0.2-9.7,5.4-15.4,4.4c-1.6-1.2-9.8-5.2-10.1-1.3c-1.5,1.8-0.7-2.5-2.3-1.7c-0.5,4.2-9-3.2-0.2,6.3
							c-1.1,0-2.2-0.2-3.2-0.6c-0.5,2.1-1.3-0.4-2.5-0.2c2.1,6.1-2-1.6-3.9-0.8c-0.2-2.5-2-1.5-3.4-0.8c1.2,3.2,4.7,4.9,5.5,8.4
							c2,0.1,1.1,1.3,0.4,2.5c3.3,0.2,6.8,3.7,7.1,7.8c-1.6,2.9-8.2-7.6-4.3-1.6c6.6,11.2-5.9-0.9-5.5,1.8c1.5,1.5,3.5,3.5,3.4,5.7
							c-8.5-6.7,3.4,15.4-5.3,5.5c-2.3,0.9-3.1,5.6-3.2-0.8c-1.8-3.4-0.9-0.5-2.1,1c-1.4-0.9-1.5-3-1.2-4.6
							c-0.9-2.4-7.7-18.2-4.3-3.8c0.1,4.5-3.1-4.2-3-5.9c0.2-2.4,1.1-5.1-0.4-7.3c-0.6-1.5-2.3-0.7-2.8-2.3c-2-1.6,0.2-1.5,0.4-3.4
							c-6.1-3.1-1.8-9.9-2.7-15.3c-2.6,0.3-3-5.2-6-5.2c-3.4-2.1-5.6-8.4-9.8-8.8c-4.8,0.8-7.5-3.8-11.4-5.7
							c0.3-2.1-0.5-5.7-2.8-6.3c0.5-1.7,0.2-3.6-0.9-5c-1.9,1.2-1.2,5-3.9,3.6c-1-1.9-0.7-1.2-2.7-1.9c0.2-16.4-20.4,4.8,2.3,13.8
							c1.4,17.5,15.7,11,22,19.1c-0.1,11.4-3.4,2.7-5.5,13.4c6.2,1.8,0.4,10.5-2.5,13.6c-3.9,3.7-1.4-0.6-2.1-4.2
							c1.6-14.9-4.4-8.9-6.6-15.9c-3.7-0.3-2.8-3.4-5.7-2.3c0.7-2.4,0.1-3.4-2-3.8c-7-2.8-15.9-12-19.7-18.7
							c-1.1-1.1-2.1-2.9-1.6-4.6c-1.1-5.2-8.2-3.9-11-1.3c-2.8,3-4.6,8.1-9.2,8c-5.1-1.2-10.2-5.2-15.8-4.4
							c-13,4.1-5.1,7.2-8.9,12.8C6.5,186,3.4,196.7-4.5,200.2c-2.5,3,1.8,6.2,1.6,10.1c2.8,3.7-3.7,0.3-4.1,2.5
							c-0.6,2.6-3,4-2.5,6.7c-9.4,0.2-4.6,7.9-18.1,5.9c-0.8,3.2-4.4,0-5.7,1.9c-11.4,8.6-11-5.4-30.7-4.6c0.8-1.4,0.8-3.8-0.2-5
							c-1.2-3.3,2.4-8.4-0.9-10.7c12.8-41.3-20.9-42.3,48.5-36.3c8-0.8,4.6-4,6-10.9c2.1-8.5-1.1-11.1-1.6-18.5
							c-12.6-18.3-2.7-9.4-21.8-16.6c-9.7-7.3,5.7-6.6,10.3-8.6c1.4,3,11.4,3.9,10.3-0.4c-9.3-15.9,12.2-3.8,18.6-8.8
							C9.1,98.6,8.1,92.9,18,93.2c-0.1-3.9,4.7-4.2,4.4-8.4c1.8-1.3,2.7-9.5,4.8-3.8c2.6-0.1,2.5,5.9,4.4,3.4c5.3-2.4-2.4-4.7,1.1-8
							c3.9-4.6,10.2-2.8,15.1-3.1c2.2-1.8,1.9,1.5,3.5,1.8c1-3,1.5-0.3,2.9-3.7c5.4,0.5,2.1-1.1,1.3-4.6c0.6-2.1-1.7-3.5-1.6-5.2
							c1.8-1.8,0.2-3.2,0-5c-1.9-1.7-3.2-3.5-1.2-6.1c-1.4-0.9-1.2-4.3-1.1-5.9c2.1-5.6,0-10.4,7.8-10.9c2.2,0.7,3.4-2.3,3.5-4.4
							c1.9-0.9,5.7-3.9,4.8,0.6c1.3,4.3-3.5,5-2,9.2c-0.3,3.1,3.8,0.6,3.7,2.9c-0.5,1.9-2.6,3.8-4.1,4c-1.4,4.2-7.9,5.3-3.1,10.5
							c-2.9,0.8-0.4,2.1,1.2,2.3c0.7,2.1-6.2,0.6-1.6,2.1c4.8,1.8,0.9,2.4,1.1,5.7c3.4-1.3,6.3,4.1,9.1,2.7c3.7,0.7,5.1-3.8,7.8-4
							c2.9,0.9,5.6-4.7,7.1,0.2c0.9,2.3-3.2,1.5-1.6,4.4c8.1-0.4,17.7-1.2,23.5-7.8c3.1-1.3,10.9,0.4,13.8-1.6
							c4.1-5.2,12.4,5.8,9.1-6.9c4.5-10.3-1.8-10,8.5-23.6c6-9.6,7.9,13.5,15,6.8c-0.1-3,1.4-6.4,0-9.3
							C158.8,25.9,159.5,21.5,158.5,17.5z"/>
						<path class="st5" d="M5.6,206.7c1.4,1,0,1.2,0.3,2.8C3.4,209.7,2.9,206.7,5.6,206.7z"/>
						<path class="st5" d="M15.9,201.2c2.7,3.3-0.2,0.8-1.1,5.9c-1.6-0.1-1.7-2.9-3.2-3.6C12,202,14.6,201,15.9,201.2z"/>
						<path class="st5" d="M22.5,200c2.1,3.6-4.3,0.7-2.5-0.2C20.8,199.7,21.7,199.8,22.5,200z"/>
						<path class="st5" d="M53.2,178.8c1.7,0,1.8-2.9,3.2-2.9c2.4,5.5-1.8,7.1-0.2,11.5c-0.9,0.6-1.7,2.9-2.8,2.3
							c-0.5-0.9-3.9-5.7-2.7-6.1c-0.2-0.9-1-1.7,0.4-2C50.7,179.9,51.9,179.1,53.2,178.8z"/>
						<path class="st5" d="M53.9,191.6c2.7-2.6,6.3,6.8,3.2,7.8c0.5,2.7,0.5,5.5,0,8.2c-1,1.7-2.7-0.8-3.5,1c-1.1,7-9.2-2.3-3.7-6.1
							c-1.3-1.6-2.3-3.4-1.1-5.5c-0.5-0.9-1.6-1.7-0.5-2.7c0.5-0.7,0-2.3,1.2-2.2C49.3,195.5,52.5,191.8,53.9,191.6z"/>
						<path class="st5" d="M74.1,218.4c4.9,0.5,9.9,1,15.2,0c2.7-0.4,1.8,3.9,4.5,3.3c0.8,15-7.3,9.5-14.2,4.8
							C75.8,225.8,63.2,218.7,74.1,218.4z"/>
						<path class="st5" d="M-7.2,235c1.2-2.6,4.8-3.6,5.5-6.3c1.2,0.1,3.1,0.8,3-1.3c8.2-0.1,15.8-2.8,24-1.9
							c2.3-0.8,2.7,4.3,4.4,1.9c0.8-2.3,3.3-2.2,5-2.5c0.2-1.8,2-1,2.7,0c3.9-1.4,4.5-0.5,8,1c3.7-1.6,15.5-7.3,15.8,0.6
							c7.8-3,3.7-0.2,2.1,4.2c-2.8,0.3-1.6,4.3-2,6.5C61.6,235.6-12.5,240.8-7.2,235z"/>
						<path class="st5" d="M64.9,50.4c1.9,1.1-0.2,5.4-1.6,2.3C60,53.3,64,48.4,64.9,50.4z"/>
						<path class="st5" d="M71.3,47.7c2.2,1.5,5.7-1.6,8.5-0.1c0.3,1.6-2.1,2.5-1.1,4.2c0.6,1.5-0.7,2-1.8,1.6
							c-2.6,0.9,3.8,2.6,0.3,3.8c-0.6,1,0,2.8-1.6,3.4c-1.7-2.1-0.5-5.8-3.7-4.8c-0.9-2-3-3.2-5.1-2.9c0-1.1-0.1-2.3-0.4-3.4
							C68.4,48.7,69,45.7,71.3,47.7z"/>
						<path class="st5" d="M72.2,58.4c6,4.4,0.1,6.7-2.6,1.8c-0.1-2.3-2.9-2-2.2-4.6C68.7,54.7,71.9,56.7,72.2,58.4z"/>
						<g id="borders">
							<path class="st7" d="M54.1,56.5c5.3-1.2-0.8-4.3,6.7-1.9"/>
							<path class="st7" d="M44,73.5c0.8,1.3-1,2.9-0.5,4.6c2,2.3,0.1,4.9-1.2,6.5c0.6,1.7,2.4,4.1-0.5,5c0.4,1.8-1.5,0-1.4,1.7
								c-4.7-3.4-3.1,3.1-3.4,7c-1.8,2.3-5.3-1.7-6.9-3.2c-5.3,2.4-7.8,2.1-11.9-1.9"/>
							<path class="st7" d="M35.4,99.1c-2.2,2.4-1,3.2,0.7,4.6c0.4,4.9,2.2,10.3,0.5,15.7c-8-8-18.7-14.4-28.9-16.7"/>
							<path class="st7" d="M36.7,119.4c4.1,6.9,12.1,5.6,4.6,12.4c4.2,7.8-15,12.6,0,17.2c-0.7,1.9,0,4.9,0,6.5
								c-3,3-0.4,5.5,2.7,5.2c2.9,13.9-6.8,6.6-1.7,14.5"/>
							<path class="st7" d="M17,179.6c-11.1-1.1-23.4-2.9-33.6-9"/>
							<path class="st7" d="M42,133.5c2.4,2.5,5.6-0.4,8.6,0.7c0.1-3.5,3.9-1.4,5.8-1.4c9.5,1.7-0.9,3.1,2.7,6.5
								c1.7-0.3,3.5,1.9,5.4,1.3c-0.4,1.1-0.5,3.4-2,2.7c-2.4,1.1,1.7,5.5-2.7,3.1c-6.1-4.3-4.6,4.4-18.5,2.5"/>
							<path class="st7" d="M60.8,134.3c4.8,3.4,12.3-0.3,18.4,0c2.8-4.2-2.2-4.9,5.7-8.6c3.4-4.8,9.4-2.9,14.2-3.5
								c3.3-0.9,1.1-6.4,5.3-2.7c6.4,0.5,8,9.1,5.3,14.9c-2.6,1.9-6.3,2.2-5,7.1c0.9,7.1-3.5,9.7-8.2,12.4c-2.6,6.1-3.9,7.1-8,2.9"
								/>
							<path class="st7" d="M63.7,143.3c6.4-1.5,24.1-3.2,17.9,9.9"/>
							<path class="st7" d="M104.7,139.2c-5.6,5.5-15,5.9-22.2,7.6"/>
							<path class="st7" d="M86.4,124.3c-0.5-1.3-1.6-2.2-3-2.4c-1.1-1.9-1.7-4.7-4.1-3.9c-1.4-2.3-1.3-5.6-3-7.1
								c5-5.7,13.1-7.3,19.9-7.4c13.1,12.3,18.1,3.9,11,16.8"/>
							<path class="st7" d="M110.8,113.9c10.2,2.3,19.6-6.2,29.8-4.1c7.4,2.2,9.6-2.7,6.5,8.2c-7.1,2.2-13.4,0.3-18.9,9.3
								c-14.5,0.4-7.7,14-17.2,2.7"/>
							<path class="st7" d="M147.1,118c10.7,17.9,3.2,0.4-3.5,28.7c-6.3,12.3-33.2,17-39.6,1.5"/>
							<path class="st7" d="M153.5,126.6c35.8,3.9,12.9,40.5,33,32.3"/>
							<path class="st7" d="M178.7,174.1c-9.6-6.6-13.5-3.7-22.5-1.6c-8-0.4-21.4-5.4-20.6-17.2"/>
							<path class="st7" d="M173,185.1c-5.1,7.5-48.3,4.1-31.2-8.6c-0.9-3-2.1-7.2-1.8-10.5"/>
							<path class="st7" d="M161.3,197.7c-1.9-3.2,0.1-6.4,2-8.9"/>
							<path class="st7" d="M124,207.7c0.9-15.1,19.1-10.9,24.1-18.5"/>
							<path class="st7" d="M176,17.5c2.5,16.2-13.2,7.3-20.8,10.1"/>
							<path class="st7" d="M173.7,27.6c10.2,49.6-21.4,2.2-40.1,22.2"/>
							<path class="st7" d="M132.4,57.1c20.8-0.9,5.4,24.3-8.2,1.9"/>
							<path class="st7" d="M176,49.5c-9.9,8.5,7.4,20.8,4.8,32.2c-3.8,9.1-13.8,11.3-20.2,4.8c-2.3,0-8,0.7-9.4-2.3
								c-2.3-6.3-5.1-14-10.7-17.1"/>
							<path class="st7" d="M180.8,81.7c31.7,17.7,3.3,22.1-13.9,27.3c-26.9,1.2-14.6,2-13.2-22.4"/>
							<path class="st7" d="M96.1,103.5c-3.4-4.7-0.3-13.5-5.5-17c1.3-5.6-1-10.8-0.9-16.6"/>
						</g>
					</g>
				</g>
			</g>
			<rect x="18.9" y="23.8" class="st8" width="134.4" height="209.1"/>
		</g>
	</g>
	<rect x="25.5" y="90.1" class="st9" width="120.1" height="75.9"/>
	<text transform="matrix(1 0 0 1 29.4664 148.4102)" class="st10 st11 st12">Tickets</text>
</g>
</svg>
