<svg xmlns="http://www.w3.org/2000/svg" xmlns:xlink="http://www.w3.org/1999/xlink" viewBox="0 0 256.12 170.89">
  <defs>
    <style>
      <!-- .cls-1, .cls-5, .cls-9 {
        fill: none;
      } -->

      <!-- .cls-2 {
        clip-path: url(#clip-path);
      } -->

      <!-- .cls-11, .cls-3 {
        fill: #e5e5e8;
      } -->

      <!-- .cls-12, .cls-4 {
        fill: #fde9e4;
      } -->

      <!-- .cls-10, .cls-11, .cls-4, .cls-5 {
        stroke: #f7f6f8;
        stroke-width: 2px;
      } -->

      <!-- .cls-10, .cls-11, .cls-12, .cls-4, .cls-5, .cls-6, .cls-7, .cls-8, .cls-9 {
        stroke-miterlimit: 10;
      } -->

      <!-- .cls-6 {
        fill: #a4d8df;
      } -->

      <!-- .cls-12, .cls-6 {
        stroke: #000;
      } -->

      <!-- .cls-6, .cls-7, .cls-8, .cls-9 {
        stroke-width: 0.5px;
      } -->

      <!-- .cls-7, .cls-8 {
        fill: #6c8e6d;
      } -->

      <!-- .cls-7, .cls-9 {
        stroke: #0d2327;
      } -->

      <!-- .cls-8 {
        stroke: #0c2327;
      } -->

      <!-- .cls-10 {
        fill: #fff;
        opacity: 0.78;
      } -->

      <!-- .cls-12 {
        font-size: 41px;
        font-family: Roboto-Black, Roboto;
        font-weight: 800;
      } -->

      <!-- .cls-13 {
        fill: #f7f6f8;
      } -->

      <!-- .cls-14 {
        font-size: 34px;
        fill: #1d1d1b;
        font-family: AmaticSC-Bold, Amatic SC;
        font-weight: 700;
      } -->
    </style>
    <clipPath id="clip-path">
      <rect class="cls-1" width="256.12" height="170.89"/>
    </clipPath>
  </defs>
  <g id="ticket">
    <g class="cls-2">
      <rect class="cls-3" x="52.15" y="-31.35" width="151.83" height="234.41" transform="translate(213.91 -42.21) rotate(90)"/>
      <rect class="cls-4" x="62.88" y="-12.48" width="130.37" height="196.67" transform="translate(213.91 -42.21) rotate(90)"/>
      <rect class="cls-5" x="69.39" y="-4.49" width="117.33" height="180.69" transform="translate(213.91 -42.21) rotate(90)"/>
      <g id="background">
        <rect class="cls-6" x="36.79" y="27.23" width="181.87" height="117.29"/>
        <path class="cls-7" d="M60,27.23c4.29.45,13.9-2.29,13,5-.73.84-3.49,3.56-1.61,4.25,0,1.15,1.61-.54,2.18.67,1.39,2.09,1.51,5.31,2.93,7.84.91,1.84,4.11,1.19,3.22,5.15.59.17.72,1.2.76,1.79,2.14,2.18.2,1.89.1,3.24,4.7-1.53,6.45,1,4.07,6.38,2.27,2.84-1.37,3.12-2.46,4.92-2.78-.29-5.71,1.95-8.53,1.68-.54-.57-1.07.42-1.42.79-1.36.79-2-1.71-3.41-1.12-2.17,1.23-.3,2.72-4.26,2-2.16,2.28-6.69,1.93-2.37-1.23,0-.91,1.07-1.52,1.61-2.13.07-.76.07-1.31.85-1.11.58-.59.89-1.43,1.8-1.24,2.21-1.87-8.17-2.86-4.26-4.92,2.51,1.79,6-4.65,1.9-3.69-1-.74,1.42-.79.75-2.13-1-3.87,4.75,3.27,4.36-4.7-.7-1.18-2.3-1.41-2.37-3.13-8.92.31.89-6.27-5.3-7.84-.32-1.41-3.08-4-1.33-4.84-.62-.55-1.27-1.59,0-1.74A23.76,23.76,0,0,1,60,27.23Z"/>
        <path class="cls-7" d="M60.09,38.2c.84,1.41-.85,2.2-1.33.78C59.3,38.36,59.28,37.28,60.09,38.2Z"/>
        <path class="cls-7" d="M62,38.65c.65,1-.46,2.42-1.32,1.56C60.8,39.5,61.19,37.77,62,38.65Z"/>
        <path class="cls-7" d="M49.76,43.46c1-.54,1.87-.05,2.66-1.46,1.19.23,2.57.16,3.15-1.45,3.11,2.05,5.62,1.29,6,6.49-2.06.62.47,4.49-2,4.7-.53,1.23.84,2.42,0,3.58-1.16,2-1.48,4.86-3.93,3.58-1.79.05-8.38,5.61-8.38,2.91-.49-.94-2.93.83-1.61-2,.61-.27-.74-1.36.85-1.79-.52-1.82,2.48-3.65-.19-4.59.2-2.48-1.38-1.45.76-3.69-1-1-1.43-2.56.19-3.25.78.54,2.33,1.61,2.65.23,1.11.64,1.21-.82,2.09-1.12,0-.93-.76-.23-1.14-.23C50.62,44.64,49.42,44.11,49.76,43.46Z"/>
        <path class="cls-7" d="M120.05,27.23c.64,1.52,26.09-3.47,21.21,2.91-1.77.78,1.84,3.43-1.42,4-3.39-.2-2.26,5.22-4,7.39-.46,3.4-5,.28-6.45,2.68,2.69,3.89-6.31,6.46-4.73,2-1.54-1.6.42-3.58,0-5.61C123,36.44,120.44,32.35,120.05,27.23Z"/>
        <path class="cls-7" d="M139.09,37.42c-.36,1-1.19,6-2.28,4.17C136.76,40.48,138.92,34.69,139.09,37.42Z"/>
        <path class="cls-7" d="M147.89,33c-1.18.19-1.07,1.17-1.42,2.23-.5.17-1.23.67-1.09,1.4-4,7.37-2.74-5.88,1.76-4.31C147.91,31.26,148,32.05,147.89,33Z"/>
        <path class="cls-8" d="M165.51,27.23h53.14V144.52H174.23c.06-4.72-1.56-2.83-4.08-4.14-1.46-2.33-.53-5.34-3.22-6.72.95-2.16,1.59.44,2.85,0,1-.43-.71-.86.28-2-.36-1.21-2.1-2.11-.28-2.24.52-2.41-4.52,2.48-2.09-4.14,2.08-.8,3.61.45,5.4-.67,1.6-.06,2.5,1.12,4.07.78-.75-6.13,1.66-1.91,6.92-2.91,2.76-1.11,4.41-4.52,7.67-4.25,2.18,1,5.09-1.14,6.54,1.45,2.39,2,1.21-1,3.22,2.13,4.65,1.39,14.57,5.24,14.21-4.59-.88-6.16-2.59-6.26-6.45-9.06-3.93-1.11.19-2.47-5.58-3.58.61-1.18,1.34-1.25,2.84-1.35.33-.89.61-1.71,1.61-1.9.26-1.63,2.17-2.52,0-3.69-.13-1.53,3.57.4,3.12-1.68,5.59-2.63-3.86-1.62-5.21,0-3.27.6-11,1.7-7.1,6.82,1.24,1.13,4.83-1,4.36,2-2.74.33-4.83-1.2-5.88,2.8-.92,2.48-5.34-.64-4.35-3.14a8.83,8.83,0,0,0-3.79-1.9c-.11-.88,1.49-.37,2-.78-.17-1.86,3.85-1,.94-2.8-3.16.51-1,3-3.31-1.57-1.4-.5-3.58-1.33-5-.74-.11,2.63-3.93,4.24-3.41,7.46-.68,1.15-2.31,1.41-3.22,2.24-.93,2.15,0,6.77-3.22,4.7-.33,2,.84,4.8-1.71,4.47,1.8,1.8,2.12,4.62,4,6.38-3.13.09-5.17,2.86-8.24,2.35-.85-.66-5.25-2.75-5.4-.67-.78,1-.36-1.31-1.23-.89-.27,2.26-4.8-1.73-.09,3.35a3.66,3.66,0,0,1-1.71-.33c-.29,1.13-.69-.24-1.33-.11,1.11,3.27-1.07-.87-2.08-.45-.12-1.32-1.07-.82-1.8-.45.62,1.7,2.49,2.61,2.94,4.48,1.08,0,.56.69.19,1.34a4.57,4.57,0,0,1,3.79,4.14c-.86,1.53-4.37-4.06-2.28-.87,3.54,6-3.18-.5-2.93,1,.79.78,1.88,1.87,1.8,3-4.55-3.58,1.79,8.21-2.85,2.91-1.23.48-1.65,3-1.7-.44-1-1.84-.47-.28-1.14.56a2.37,2.37,0,0,1-.66-2.47c-.46-1.26-4.13-9.69-2.27-2,0,2.42-1.68-2.25-1.61-3.13.13-1.27.58-2.73-.19-3.92-.31-.8-1.22-.36-1.52-1.23-1-.85.11-.79.19-1.79-3.24-1.67-.94-5.28-1.42-8.17-1.37.18-1.58-2.8-3.22-2.8-1.82-1.1-3-4.46-5.21-4.7-2.54.43-4-2-6.06-3,.15-1.12-.26-3.07-1.52-3.36a3.1,3.1,0,0,0-.47-2.69c-1,.64-.64,2.68-2.09,1.91-.51-1-.37-.64-1.42-1,.13-8.73-10.87,2.56,1.24,7.38.76,9.34,8.39,5.89,11.74,10.19-.06,6.1-1.81,1.45-2.94,7.16,3.31,1,.19,5.6-1.32,7.28-2.06,2-.76-.35-1.14-2.24.84-8-2.33-4.73-3.5-8.51-2-.15-1.52-1.8-3-1.23.36-1.3.07-1.81-1-2-3.76-1.48-8.49-6.38-10.51-10a2.63,2.63,0,0,1-.85-2.47c-.6-2.75-4.38-2.09-5.88-.67-1.49,1.59-2.48,4.33-4.92,4.26-2.75-.62-5.45-2.79-8.43-2.35-7,2.2-2.74,3.86-4.74,6.82-5,1-6.65,6.73-10.89,8.62-1.31,1.62,1,3.29.85,5.37,1.49,2-2,.15-2.18,1.34-.31,1.4-1.6,2.12-1.32,3.59-5,.08-2.47,4.22-9.67,3.13-.43,1.7-2.34,0-3,1-6.1,4.57-5.88-2.9-16.38-2.47a2.72,2.72,0,0,0-.1-2.68c-.65-1.78,1.29-4.48-.47-5.71,6.85-22-11.16-22.56,25.86-19.36,4.25-.4,2.43-2.12,3.22-5.82,1.12-4.56-.58-5.9-.86-9.85-6.71-9.79-1.46-5-11.65-8.84-5.17-3.89,3-3.51,5.5-4.59.72,1.59,6.09,2.11,5.49-.22-5-8.51,6.49-2,10-4.7,2.06-4.39,1.54-7.43,6.82-7.28-.07-2.1,2.52-2.22,2.37-4.47,1-.7,1.45-5,2.55-2,1.4,0,1.36,3.13,2.37,1.81,2.81-1.3-1.3-2.53.57-4.27,2.06-2.44,5.42-1.48,8-1.68,1.18-1,1,.79,1.89,1,.54-1.58.82-.14,1.56-2,2.9.26,1.13-.56.72-2.46.34-1.14-.88-1.89-.85-2.8,1-.94.08-1.69,0-2.68-1-.93-1.7-1.85-.67-3.25-.74-.49-.66-2.27-.57-3.13,1.15-3,0-5.52,4.17-5.82,1.15.36,1.8-1.23,1.9-2.35,1-.47,3-2.11,2.55.33.72,2.3-1.85,2.7-1,4.93-.15,1.66,2,.3,2,1.57a3.1,3.1,0,0,1-2.2,2.12c-.78,2.24-4.23,2.84-1.68,5.6-1.57.42-.23,1.13.66,1.23.4,1.15-3.32.31-.85,1.12s.47,1.3.57,3c1.82-.72,3.35,2.18,4.83,1.46,2,.38,2.73-2,4.17-2.13,1.55.48,3-2.52,3.79.11.46,1.21-1.7.78-.87,2.35,4.34-.23,9.44-.64,12.52-4.18,1.64-.7,5.8.2,7.38-.86,2.21-2.78,6.62,3.1,4.83-3.69,2.4-5.49-1-5.32,4.51-12.59,3.2-5.11,4.24,7.2,8,3.66-.06-1.61.73-3.39,0-4.95C165.72,31.71,166.08,29.36,165.51,27.23Z"/>
        <path class="cls-7" d="M83.93,128.18c.77.55,0,.65.16,1.49C82.78,129.81,82.53,128.17,83.93,128.18Z"/>
        <path class="cls-7" d="M89.45,125.27c1.42,1.74-.08.42-.57,3.14-.83-.07-.89-1.56-1.7-1.91C87.35,125.66,88.74,125.12,89.45,125.27Z"/>
        <path class="cls-7" d="M93,124.6c1.12,1.93-2.32.38-1.33-.11A5,5,0,0,1,93,124.6Z"/>
        <path class="cls-7" d="M109.34,113.29c.93,0,1-1.52,1.71-1.56,1.28,2.92-.94,3.78-.1,6.15-.47.33-.89,1.53-1.51,1.23-.29-.47-2.09-3-1.42-3.24-.09-.48-.55-.9.19-1.07C108,113.9,108.67,113.48,109.34,113.29Z"/>
        <path class="cls-7" d="M109.72,120.12c1.45-1.38,3.38,3.61,1.71,4.14a13.35,13.35,0,0,1,0,4.37c-.55.92-1.45-.46-1.9.56-.58,3.73-4.88-1.26-2-3.25A2.38,2.38,0,0,1,107,123c-.27-.49-.86-.92-.29-1.45.27-.4,0-1.22.66-1.18C107.28,122.19,109,120.21,109.72,120.12Z"/>
        <path class="cls-7" d="M120.52,134.45a28.52,28.52,0,0,0,8.1,0c1.44-.23,1,2.08,2.41,1.77.41,8-3.89,5-7.6,2.57C121.41,138.4,114.7,134.57,120.52,134.45Z"/>
        <path class="cls-7" d="M77.14,143.29c.64-1.38,2.53-1.93,2.93-3.36.62.06,1.65.4,1.61-.67,4.39,0,8.45-1.47,12.79-1,1.22-.43,1.46,2.27,2.37,1,.45-1.24,1.74-1.16,2.65-1.34.09-1,1.07-.53,1.42,0,2.07-.77,2.42-.29,4.27.56,2-.87,8.26-3.92,8.43.33,4.15-1.61,2-.12,1.13,2.24-1.47.16-.83,2.31-1,3.47C113.83,143.62,74.29,146.37,77.14,143.29Z"/>
        <path class="cls-7" d="M115.59,44.8c1,.6-.12,2.88-.85,1.21C113,46.35,115.09,43.7,115.59,44.8Z"/>
        <path class="cls-7" d="M119,43.35c1.2.78,3-.84,4.55-.05.17.84-1.14,1.33-.58,2.23.33.8-.39,1.06-.93.84-1.37.46,2,1.4.16,2-.31.56,0,1.52-.83,1.79-.89-1.1-.26-3.11-2-2.57A2.68,2.68,0,0,0,116.64,46a11,11,0,0,0-.19-1.79C117.46,43.9,117.79,42.28,119,43.35Z"/>
        <path class="cls-7" d="M119.48,49.06c3.22,2.34.08,3.57-1.38,1,0-1.23-1.54-1.08-1.18-2.44C117.61,47.1,119.33,48.16,119.48,49.06Z"/>
        <g id="borders">
          <path class="cls-9" d="M60.85,50.73c-2.3-.19-3.35-2.75-4.74-4.25-.72,1.45-1.18,2.34-2.84.67a17.18,17.18,0,0,0,2.84-6.26"/>
          <path class="cls-9" d="M109.82,48.05c2.81-.62-.4-2.32,3.6-1"/>
          <path class="cls-9" d="M104.42,57.11c.43.72-.55,1.57-.29,2.44,1.08,1.24.05,2.59-.66,3.49.3.89,1.27,2.17-.28,2.69.2,1-.81,0-.76.9-2.51-1.81-1.66,1.67-1.81,3.73-1,1.23-2.81-.92-3.69-1.72-2.81,1.26-4.14,1.1-6.34-1"/>
          <path class="cls-9" d="M99.87,70.75c-1.17,1.26-.54,1.69.38,2.48.19,2.6,1.15,5.49.28,8.39-4.29-4.26-10-7.69-15.44-8.89"/>
          <path class="cls-9" d="M100.53,81.62c2.21,3.66,6.48,3,2.47,6.61,2.23,4.16-8,6.73,0,9.17-.37,1,0,2.6,0,3.47-1.61,1.62-.23,2.92,1.42,2.8,1.54,7.4-3.65,3.53-.9,7.75"/>
          <path class="cls-9" d="M90,113.74c-5.9-.57-12.5-1.56-17.9-4.81"/>
          <path class="cls-9" d="M103.38,89.12c1.28,1.34,3-.21,4.59.39.07-1.88,2.1-.74,3.08-.72,5.09.89-.46,1.63,1.42,3.47.93-.14,1.87,1,2.85.67-.2.58-.24,1.81-1,1.45-1.26.58.9,3-1.42,1.68-3.26-2.28-2.43,2.34-9.85,1.34"/>
          <path class="cls-9" d="M113.42,89.57c2.57,1.8,6.56-.16,9.84,0,1.5-2.26-1.18-2.6,3-4.59,1.83-2.55,5-1.56,7.57-1.89,1.79-.45.61-3.4,2.84-1.47,3.41.26,4.29,4.84,2.85,7.95-1.4,1-3.37,1.17-2.65,3.8.48,3.8-1.88,5.19-4.36,6.61-1.36,3.24-2.08,3.78-4.26,1.56"/>
          <path class="cls-9" d="M114.93,94.38c3.42-.79,12.83-1.72,9.57,5.26"/>
          <path class="cls-9" d="M136.81,92.14c-3,2.92-8,3.13-11.84,4"/>
          <path class="cls-9" d="M127.06,84.2a2,2,0,0,0-1.59-1.3c-.6-1-.93-2.5-2.2-2.06-.73-1.2-.71-3-1.61-3.81,2.66-3,7-3.88,10.61-3.92,7,6.58,9.67,2.08,5.87,9"/>
          <path class="cls-9" d="M140.07,78.65c5.46,1.21,10.47-3.29,15.88-2.18,4,1.15,5.09-1.42,3.48,4.37-3.79,1.17-7.14.15-10.11,5-7.73.2-4.12,7.44-9.18,1.44"/>
          <path class="cls-9" d="M159.43,80.84c5.7,9.56,1.69.21-1.87,15.33-3.34,6.58-17.72,9-21.11.8"/>
          <path class="cls-9" d="M162.86,85.43c19.08,2.1,6.9,21.61,17.62,17.25"/>
          <path class="cls-9" d="M176.31,110.77c-5.13-3.52-7.22-2-12-.83-4.29-.24-11.4-2.88-11-9.18"/>
          <path class="cls-9" d="M173.28,116.65c-2.74,4-25.78,2.2-16.67-4.59a16.06,16.06,0,0,1-1-5.59"/>
          <path class="cls-9" d="M167,123.37c-1-1.7.07-3.41,1-4.74"/>
          <path class="cls-9" d="M147.14,128.74c.48-8,10.2-5.81,12.88-9.85"/>
          <path class="cls-9" d="M174.89,27.23c1.31,8.64-7,3.89-11.08,5.37"/>
          <path class="cls-9" d="M173.63,32.6c5.43,26.47-11.4,1.2-21.38,11.87"/>
          <path class="cls-9" d="M151.61,48.38c11.11-.49,2.86,13-4.38,1"/>
          <path class="cls-9" d="M174.89,44.32c-5.3,4.54,4,11.12,2.56,17.16-2,4.85-7.36,6-10.8,2.57-1.22,0-4.27.35-5-1.23-1.22-3.35-2.7-7.49-5.68-9.12"/>
          <path class="cls-9" d="M177.45,61.48C194.38,70.94,179.22,73.27,170,76c-14.32.63-7.79,1-7.06-12"/>
          <path class="cls-9" d="M132.27,73.11c-1.82-2.5-.15-7.22-2.94-9.06.69-3-.52-5.78-.48-8.84"/>
          <path class="cls-9" d="M185.11,70.43c16.46.81,8.2,7.69,18.53,11.27,3.3-.12,9.4-3,8.8,3.73-1.25,3.2-5.69,4.85-4,9.4"/>
          <path class="cls-9" d="M48.06,115.64c10.43-5.55,4,16,5.11,21.72"/>
        </g>
      </g>
      <rect class="cls-10" x="69.36" y="-5.39" width="117.33" height="182.48" transform="translate(213.88 -42.17) rotate(90)"/>
      <circle class="cls-11" cx="201.34" cy="121.6" r="35.75"/>
      <text class="cls-12" transform="translate(177.45 136.83)">22</text>
      <g>
        <rect class="cls-3" x="-1" y="10.57" width="258.12" height="33.8"/>
        <path class="cls-13" d="M256.12,11.57V43.36H0V11.57H256.12m2-2H-2V45.36H258.12V9.57Z"/>
      </g>
      <text class="cls-14" transform="translate(35.8 38.7)">Warzawa - Le Havre</text>
    </g>
  </g>
</svg>
