<svg id="map" xmlns="http://www.w3.org/2000/svg" viewBox="0 0 1921 1049">
  <defs>
    <style>
      .cls-1 {
        fill: #9ee6e8;
        stroke: #082930;
      }

      .cls-1, .cls-2, .cls-3 {
        stroke-miterlimit: 10;
      }

      .cls-2 {
        fill: #6c8e6c;
      }

      .cls-2, .cls-3 {
        stroke: #0d2326;
        stroke-width: 0.5px;
      }

      .cls-3 {
        fill: none;
      }
    </style>
  </defs>
  <g id="background">
    <rect class="cls-1" x="0.5" y="0.5" width="1920" height="1048"/>
    <path class="cls-2" d="M245.5.5h123l2,17,9.0494,8,8.9506,7-6,7v6l-7,4-2,6-7,7-3,6-7,6,3,6,6,3,1,5,5-2,10-2,7,5,4,12,8,2,3,18,3,11,8,20,5,7,2,8,12-1,6,7,8,3,2,5,6,6-2,11v7l6,4,2,12,8,8,3,8-3,6-8,1,1,6,8,2,4-5,8-1h21l9,9,5,9.7781V282.5l-9,12-3,13,8,12-1,10-8,6-13,2-3,7-9,7h-12l-18,2-12,4-10,6-38,3-6-2-9,9-7,2-9-4-7-8h-13l-9,2-2,10-8,8-12-2h-14l-12,5-9.2445,10H261.5l-14-8,3-7,8-2,10-9,1-6,7-4,2-4,7-5,1.4378-10H294.5l5-4,3-6,11-1,4-4-1-6-20-7-11-2-10-3-9-6-7-9,2-7h7l10,3,6-3,10-1,10-10,4-10v-9l-5-5-7.7151,2H288.5l-4-4,8-3,5-6-1-6-3.5387-7,2.5387-5,8,2,13.4613,3H330.5l11-7-2-14,3-14-6-7-10-5-5-4-4-12-14-1-20-2-7-7-2-13,4-12,9-12.7392V109.5l-5-7-10-2-11-6-6-13-11-9-2-14-1-6,6-1.245-8-7.9058V38.5l8-2.7743V30.5l-2-1.5508V.5Z" transform="translate(0)"/>
    <path class="cls-2" d="M246.5,98.5l3,8-4,6-9.5-1.3863L232.5,105.5l4-5,3-6.3274Z" transform="translate(0)"/>
    <path class="cls-2" d="M266.5,102.5l2.7437,7-3.7437,7-7,3-6-3,2-8,6-9Z" transform="translate(0)"/>
    <path class="cls-2" d="M137.5,145.5l8-4,5.1557,4,3.8443-5,7-3,4-5h7.8851l5.1149,3,5-4,6-1,6-5,3.2968-6,5.7032,3,7,5,8,3,10,1,8.5438,1,5.4562,7,7,4,4,6,1,10,6,4,1,14-8,4-1,12-2,1,2,6,1,10-5,7-8,2-2,8.2253,4,9.7747,2,5-4,9-13,22-4,5v7H209.95L200,283.49l-8.6855,2.01-9.8145,5-15,6-16,5-6,8-10,4-13,1-7,2-6-3,3-4v-3h-5l-6,2-6-2-5-2,3-7,2-6,3-1v-2l-4-3,2-6,8-4-1-11,3-4,5-4,1-6,3-4-2-6-5-3-6-3,1-8-2-5L96.4441,218l.0559-3.5,4-3,2-3,2-3,4-1,1-3-4.0206-3-1.9794-3v-5l-3-1-3-5,3-3,3-4,4-3,4-2,4,3,5,2,6,1,4,2,4,1,3-2v-3l2-2,5,1h6l2-4,4-5,5-2v-3l-5-2-4,3h-3l-2-2-2-4-5-2-1-4-4-2Z" transform="translate(0)"/>
    <path class="cls-2" d="M879.5.5h230l-6,26-6.0226,3-.9774,5,4,6,5,5-5,13-12,4-15,2-8,8-2,13-4,6-2,9-3,12-3,10-5,6-2,9-8,5-17,1h-22l-12,3-7,6,4,8.6842V171.5l-4,8-8.5,7.2842L956.6776,189.5H926.5v-12l2-6.904-5-7.096-3-5,3-10,3-5,2-9.7981V120.5l-3-8.2568V102.5l-5-3-10-8-8-14-2-8-5-6-3-24-8-10Z" transform="translate(0)"/>
    <path class="cls-2" d="M1080.5,91.5l-3,8.6961-2,9.3039-5,12-6,10-5,3-3-5.6922V120.5l3-6,3-3,3-6,3-11,5-5,4-8Z" transform="translate(0)"/>
    <path class="cls-2" d="M1173.5,51.6315l-12,4.8685v8l-3,7-6.811,2.75L1147,79.49v4.5176L1141.5,92.5l-4,6-8,7-4.9168,2.5-1.0832-7.5-3-7,3-15,2-10,3.2244-8H1134.5l4-5,3.7773-6.88h8.2823V45.5h14.94l3-3,5-2Z" transform="translate(0)"/>
    <path class="cls-2" d="M1359.5.5h561v1048h-469l-2-18-3-10-10-6-10,4-9-3-9-4-8-12-3-13,1-15-13-11-11-9,7-8h7l5,8h11l4-2-1-3-4-4v-4l4-2v-3l-3-4-4-9h-5v-6h6l3-1,1-4-2-3-10,1-3,2h-12l-1-3-1-7-1-5-1-4,2-3,5-4,1-7,6-2,4-2,8,1,4,2,7-1,7,2,13-2-1-4h9l5,1,5,2,6-3,4,2,3,1,4,5h8l8-1,1-10-2-15-2-5,4-2,10,5,11-2,14,4,16-1h21l9-3,5-6,9-5,6-2,8-2,4-3s2-7,1-7,10-5,10-5l8-2,13-4,8,1,14,2,16,1,14-2,11-1,8,7,6,6,8,5,7,3,5-3,7,1-1,8,8,5,10,3,7-1,8,2,2,4,10,1,4,4,15,2,11-1,17,2,13,1,10-1,8-2,13-1,9-6,4-10,5-12,4-15.3877V804.5l-4-13-3-16-6-9-5-12-6-8.2817-12-3.7183-11-7-14-4-7-8-11-2-11-10-2-9-4-6-17,1-8-4-6-2,2-4,6-1-2-5,15-1,9-1,3-4v-5l4-4,10-4,1-6,5-7,6-4v-6l-6-6-6-4v-5h10l12-1,9-1,3-4-1-4,5-2,12-6,6-4-5-2-11-1-14,3h-13l-10,2-13,1-4,6-8,3-19,3h-14l-1,5-9,1-19,3-8,4-4,8-10,4-6,4,3,12,8,8,4,9,13,5,18-4,12,5,5,6-2,6-8,1h-15l-11-2h-11l-4,3-9,16-4,7s-6,9-7,10-17-6-17-6-14-5-14-6-9-9-9-9l1-17-4-5-16-3-7-8-13-1v-4l13-1,8-2s-1-5,2-8,13-3,13-3l7-3-3-6-9-5h-11l-8,11-7-4-2-13-7-8-20-6-23-3-10,2.3539V629.5l-2,4-14,10-9,14-4,7-7,10.1891V687.5l-8,8-14,5-12,7-4,7.0949V725.5l-3,15-3,6.4713-2,7.5287h-7l-7-3-8-2-1,11,1,15v10l-9,4-3-2-6,2,5,4,5,6,6,5,1,11,5,9,5,7,11,8,4,7-11,1-12,5-6,3-6-1-8-1-5,4-8,7-9,6-8-3h-14l-7-4-4-4-9-1h-11l-10-5-5-2-10,5-1,5-4,3-3-7-1-4h-5v3l-3,3-8,2-4-3-5-2-4,5,3,4,6,6,9,5,5,7h-8l-10-3-2,5-4-2-2-3-6-1,3,5,1,6h-4l-6-4-2-7-7-3-7-1-3-8-9,1-7,3,5,10,10,6,7,11,6,5,3,8,8,2-1,3s-6,7-5,7,14,3,16,3,5,6,5,6l9,6,7,9,3,13-5,4-6-4-23-18,6,4,3.9338,6.1817L1294.5,957.5l5,7,3,7-1,6-11-4-11-5-15-9-4-4v6l8,7,7,6v5l5,5-1,4-6-1-7-5h-9l5,7,2,11,1,8,1,8,2,5,2.1535,6h-6.4l-7.7535-6-4-5-3-2-4,1-6,4v8l-8-3v-14l-2-4-6-5v8l-4.0464,6-5.9536-5-2-8,1-9-1-8-3-4-4-1s-5-6-5-8-2-9-2-9l-5-8-9-8,1,14,4,14v8l-4-3-5-9-6-13-2-11v-6l3-7v-11l-5-11-4-5h-7l-5-6-6-6,6-4,2-6-9-6-6-4-4-13,2-11-4-6,5-5,1-13,2-6-2-9h-8l-1-5-6-5-7-11-12-4-8-4-6-8-8-9-14-11-10-9-9-1h-11l-11-1-8-4-5-8-16-4-1-4-6-3-6-3,2-6-4-4-1-12-6-5-7-3,2-14-5-6-2-4-6,5-2,6-4,8-4-1s-5-1-6-1-3-2-3-2v-6s-6,1-7,1a10.5585,10.5585,0,0,1-5-2c-1-1-1-6-1-6l2-7-1-6-3-6-7-3h-13l-3,6-10,5-7,8-7,5,1,14,2,11,7,14,17,9,8,5,7,9,13,2,2,3s5,4,6,3-1,16-1,16l11,13L970,789.8888,980.5,800.5l14,3,11,1,27,6,22,6,12,13-2,12,1,12-7,10-9-1-5,8-3,3-1,12-5,3v5h6l4,6,6,7,1,9-8,11-5,12-11,13-7,7-9,6-6,3,3-6,1-7-1-10v-6l2-6v-10l-2-7-2-12v-7l-3-8-12-7-16-7-3-7-1-5-5-2-13-2-2-9-12,2,2-14-13-4-8-3h-10l-3-6-9-2-6-6,1-4-16-6s-2-5-2-6-6-6-6-6l-9-3-6-7-7-9-11-6-6-9-10-2v-6l-3-8-6-6-4-8,1-8-5-10-5-6-14,1-10-1-17,2-11,8-10,8-4,10-11,10-11,7-16,3-14-2-14-9-13-1-10-4-14-5h-24l-13,1-9,8-14,5-3,6-6,3-2,7,3,10,2,10-8,11-15,6-16,6-17,11-12,7-15,17-2,10-18,11-20,9-7,11,5,6,5,6,1,7,3,6v7l2,5,4,3v3l-3,3-6,1-10-3-5,1-3,4-4,6-2,10-5,1-4,8,1,7h-11l-8,2-9,2-8,7-4,9-10,6-9,1h-11l-4,2-13-1h-15l-4,6-10,2-13-3-5,4-5,5-11,1-9,4-4.4562,5H225.5l-9-5-10-13-3-8s-15-4-15.5738-3-14.4262-2-14.4262-2l-18,2-20-4-12-2-17-2,3-7v-11l-4-6-2-11,3-11s3-14,2-15-1-8-1-8l-7-6-4-12,10-8,4-10,4-7,3-9,3-8,1-9,1-11,1-9-1-6-3-8v-16l-5-6-1-6,6-4-3-8-1-5-2-8-5-5.0228V738.5l6.7676-8,11.2324-4,19-2,13-8,20-3,11,7,33-1,31,.7419,28,4.2581h43l25,4,24,2,12.8258-4H398.5l7-6-1-12v-12l1-10,2-8,1-12,2-13,3-10-5-14-2-10-6-7-2-12v-10l-5-9-5-4-14-10-7-11-1-14-7-4-4.7976-10H337.5l-15.55-6H305.5l-12-3-18-8-9-7-13-13,7-7,14.7672-2,21.2328-4,15-4,12-2,10-2,7,6,7.8024,6h10.1647l9.0329-2,7-2,10,4,7-3v-11l-7-10-6-17.5987V428.4778l13-.9778h12l14,2,13,3,22,2,17-3,14-2,13-3,7-10,7-9.481V389.5l5-8,2-9.8691,13-3.1309,12.8138-4H556.5l12-3.0338V355.5l4-5,5-7,11-5,3-8,2-9,8-6.7161V304.5l4-2,3-5,3-5,5,3,4,8,11,5,4,8,4,8,6-4.822,7-2.178,3-8,2-6-6-3-6-4.916V289.5l6-8,5-4,4-4,9-4,13-1,10-2,15-1,7,2,5-1h17l6-3,7,3.0958V272.5l6.8957,2.7546L759.5,270.5l-.8455-3H767.5l2-4v-3l3.46-3H789.5l3-5-4.4808-2-4.5192-3v-6l-3-6v-7l-3-8-6-5v-5l3-5,3-4-2-6-4-4v-5l-5-6-6-2-2-7,1-7,3-2,2-5-5-3v-13l-3.1043-5,2.1043-7,4-1.8216V115.5l2-7.5V99.5l4-3,2.578-3.8333V85.5l4.422-2,9.1309-2,8.8691-2,9-2h9l6-7,3-4,2-10,6-5,8,1,8-5,5-1v13l1,13-4.128,9h-4.8941l-3.9779,9-1,4,2,9,1,6,9,3h10l1,5-4,9-9,5-5.3986,5h-4.8941l-.7073,6-9,7-11,4v6l-5,4-1,9v7l8,2,1,5-9.0221,3,5.0221,6,11,2v5h-8l-11,2,10,3,12,5,3,7-9,6.437V234.5h14l13,5,10,7,8.7072,4,5.2928-3,8-1,11-2,7-5,7-4.9042V229.5l11-1,10-1,10-.0571V222.5l5-3h7l6,4,2,6,1,7-10,2-2,7,1.8953,5,7.1047-3,8,1,8.9894,2H984.5l8.683-5H1009.5l11-3,13-3,14-2,6-6,6-3,5-3,6-2.9512V216.5l10-3.3629,10.2009-2.6371H1142.5l16-5,8-7h15l10,1,6,3,12,2.7312,4-3.7312-.8229-12,.8229-4-4-5.8688V172.5l4-2,2-9,4-7v-7l-2-7,3-13.951V116.5l2-3.88V100.5l9.0006-3,6.9994-5,2-7.7391V79.5l8-9,8.6006-10.5,5.3994-8.5,13-4,6,5,14,13,8,16,12.7063,16H1329.5l12-4.8333V82.8785l3-11.3785,1-10-4-13,11.9768-8,5.0232-7,4-4.4567V22.5Z" transform="translate(0)"/>
    <path class="cls-2" d="M498.2315,902.5l3.2685,3,2,2-3.5744,1.659v6.659H493.5l-2.045-3.6706H487.22v-5.0823h3.28V904.5l3-2Z" transform="translate(0)"/>
    <path class="cls-2" d="M556.5,876.5l2,4,5,2.2828V886.5l-5,1-2,3-3,3.2945V899.5l-3,5.0239-5-1.0239-2-4-2-3.3055-2-2.6945-4-4-3-2,1-4,2.1432-2H539.5l5-3,6-3Z" transform="translate(0)"/>
    <path class="cls-2" d="M593.5,870.5l2,4.5v3.5l-4,2-2-2-3.3157-3H577.5v-4l2.049-2H587.5Z" transform="translate(0)"/>
    <path class="cls-2" d="M766.5,769.5l4-1,3-3,4-2,1-4,2.6486-4H784.5l1,5,1,5,3,2.2242-2,3.7758,2,5.9653V781.5l-3,2,1,2-1,4-3,1.2359-3,1.7641.79,4-1.79,6,3,3,1,5-3,2-1,3-6,4-2,3-4-1-3-4-4-2v-3l-1-4-2-1-2-3v-3l-4-3-2-3.8112,3-2.1888v-2l-3-3,1-3,4-1.5288V775.5l3-1,2-3,4-1Z" transform="translate(0)"/>
    <path class="cls-2" d="M770.5,830.5l1.0486-2H779.5l4.3309,3,3.6691,4,4,4,1,4-1,4,2,5,2,3,1,5-1,3-4,1.6358-3,2.3642-1,4,2,5,2,3.1769-1,5.8231,1,7-1,5-3,2v4l1,3-2,1-3,3-4-1-4-2-5,1-2,3-1,4.7415-2,3.2585-2,4-5,2-4-2-2-5-3.6808-2H743.5l-5-3-1-5v-5l-2-2.7879,1-3.2121,3-3,1-3,1-4,4-3,2-2-2-3-4-4-3-3v-10l2-3,1-3-2-3-3-3-1-3,3-4,1.5663-2.5054V836l2.4337-2.5,3-.5524V836.5l2,4,5-2,6-2,4-3,5-2Z" transform="translate(0)"/>
    <path class="cls-2" d="M884.5,958.5l5,1,4.3072-3,6.6928,1,8,3,5,3,9,1,7-3,11-1,17-1,12.5-.7644L980.5,960.5l2,6,3,7,10,1,1,8-3,8v17l-9,10-4.293,7H971.5l-7-4-8-2-7-3-7-2-7-3-3-5-5-4-3-3-9.234-1H907.5l-7-2-2-4-5-2-2-3-6-2-5-2-6-2-4-4-5-1-4-4-4-2.4115V964.5l7-2,5-1,5-1,5-4Z" transform="translate(0)"/>
    <path class="cls-2" d="M426.5,1037.5l8-9,9-7,12-8,2-6,9,1,6.6021-1,1.3979-6,4-2h8.908l13.092,1,9,1,4-3h7.4138l5.5862-2,8,2h7l1-3,6-2h8.1784l8.8216,2,2.2843-2,3.7157-3h14.92l2.08,2h5l4.59-2,6.41,1,5,1h6l3,3,4,2,3,3v4.1649l6-.1649,3-3,3-5,4-2,4-2,1.7194-2h13.1765l2.1041-1,2-5h4.9312l5.0688,2,3,3,5,1,4-3,4.2017-3,6.7983,1,6,2,6,2,6.0487,1,3.9513,5,3-1,2-3,3.66-1h3.5764l.7631-3,7,1,5-1,7,1,5-2,2-3,3-3h7.3192l7.6808-1,2-3h5.19l4.81-2,1,2,2,2,5,1.6943,9,.3057s2,3,2,4v6l4,3v4.012l4-1.012,5-3,6-1,4.8132-2,4.1868,1,3,4-2,4-2,3-3,2-5,2-2,6-1,5-6,2-2,2-3,4,1,6-1,17h-389Z" transform="translate(0)"/>
    <path class="cls-2" d="M832.5,157.5l4.33,2.8561V164l-1.9912,3.1263V173.5H827.5l-1-2-3-3.1789h-7V164.5l2-5,4-2,8-3Z" transform="translate(0)"/>
    <path class="cls-2" d="M868.5,144.5l6,4,8-3,8-3h12l14,1.5549V148.5l-8,9,1.8719,6.5,1.1281,5.5-5,3-6-1-4.6222,2,4.6222,5,5,2,2,3,1,3-6.2223,3L900.5,191.3018V200.5l-7,5-4-6-3-8-.9752-9H872.5l-4-5-8.3869-8H852.5l-9-1-1-6,2-5-4-2,1-3,5-2,4-2,1-4,7-4Z" transform="translate(0)"/>
    <path class="cls-2" d="M873.5,195.5l5,6.7194,8,2.2806s4,10,4,11-14,1-14,1l-11-3-6.5-9.21-2.5-7.79-10-4.8217V182.5l7-3,8,7,10,2Z" transform="translate(0)"/>
    <g id="borders">
      <path class="cls-3" d="M254.5,210.5l-19-6-13-10-6.3385-8-5.6615-11-6-3.0217-6,5.0217,3,6-9,3-13-3-5-5,8-11,8-10,9-19,5-16" transform="translate(0)"/>
      <path class="cls-3" d="M771.5,186.5l5-1,6-2,2-3,1-5,3-3h7.0487l2.9513,2,2,3,3,1,2-1,4-.0326" transform="translate(0)"/>
      <path class="cls-3" d="M714.5,267.5l2,4-2,3.9428-3,6.0572v7.7781l5,7.3411v6.2118l-2.5,5.3647-2.5,6.2117-5,2.0926-2,4v4.3545l6,2.8235v11.8588l-5,2.9632-4,2v4.3544l-7-.3544-1,4-9-1v-3.775l-8-.225-2.0806,5v33.3426L669.5,390.5l-3.0355-1.1383L661.5,387.5l-13-6-6-5-7-6-10,3-12,2-7,3h-15l-10-8-7-8-6-1.0338" transform="translate(0)"/>
      <path class="cls-3" d="M666.4645,389.3617,658.5,399.5l3.0568,7.519h5.5476L670.5,411.5l3,10-4,10,8,11.5282V467.5l-4,19-25-19-14-12-16-10-19-6-36-15-22-13-31-4.481" transform="translate(0)"/>
      <path class="cls-3" d="M673.5,486.5l15,12,3,9,13,6,16,8-8,12-13,12,4,8-1,14-9,9-11,10-13,7-2,11,4,13,14,6,14,4-3,19,4,7-1,5L694,664.93,690.5,674.5l8,7,16,2,1,11-2,10,7,4.81-5,12.19-9,6L694,735.9379l11.0595,16.77" transform="translate(0)"/>
      <path class="cls-3" d="M562.5,773.5l-8-1-10.5508,2.2706H532.5l-6-2.2706-20-3-5-4-9.1429-5-9.8571-3-17,3-21-5-13.1657-2.7924h-7.2118L405.2609,743.5H393.5l-20-13" transform="translate(0)"/>
      <path class="cls-3" d="M703.5,553.5l10,7,11.2987-3.5,6.1023-3.5,6.657,3.5h14.4236l3.5184-9.5h8.6862l20.3138,3,15.19,3.5,9.81,3.5-9,8-3,6-4,6,6,4h7.4022l10.5978,6h12.147l-4.147,13h-6.948l-7.052,6,5,5-1.2765,8.1038L803.5,615.5l-11-3-3-6.3743-8,1.3743-2,8-12.9265,4.1038L752.5,622.5l-14,4-13,2H707.6014l-8.1014-1" transform="translate(0)"/>
      <path class="cls-3" d="M809.5,557.5l11,5,4,6,10.14-5.5h24.9639l18.3069-5.5,20.5894,3,14.9148-3,5.0852-2v-16.5l-3-5.5,16.2216-9.5L945.5,516.5l8-7,16.5-9.887,13.5,2.887,25-2.887h16.9749L1037.5,493.5V482.9705l5-3.4705,5,3,7.9316,4,15.0684,4,10,5,5,8,5,10,3,11-3,20-5,13-7,5-19.1851,6-2.8149,12,1,11-2,26-5,11-6,5-12,4-10,7-11,6-5,10-3,7-9,5-6,6-9-2c-1.6035-1.48-7.117-10.5293-5-10h0l-8-2" transform="translate(0)"/>
      <path class="cls-3" d="M825.5,600.5h18.0159l19.9841-6h20.5129l27.7376,3,9.75,8,10,11,5.2144,12L926.5,647.5" transform="translate(0)"/>
      <path class="cls-3" d="M1056.5,580.5l-10,11-21.0251,3-23.9749,9-21,8H954.4665l-22.9665,5" transform="translate(0)"/>
      <path class="cls-3" d="M953.5,509.5l-5-8-11.7856-3.5635L931.5,490.0306,925.4306,479.5H913.5718l-4.0718-10-6-7V451.066l-7-5.566,11-12,24-6.7163,19-10.2837,19.5-6.0927,24,2.2588,14.5-2.2588,15,8.0927,13,9,10,8,7,9h16l17,6,4.3891,9.4536L1080.5,472.5l-10,18" transform="translate(0)"/>
      <path class="cls-3" d="M1090.8891,459.9536,1105.5,462.5h11.3656l9.6-2.5464h10.7294L1146.5,452.5h38.6948l17.3052-4,8-9,19-3,29,4,23,4,26-1-8.2348,16.4536L1295.3123,479.5l-8.8123,7-28-4-16.8347,4-17.1653,6-12,12-10.9287,5L1188.5831,524,1165.5,528.5l-22,5-13,12-2,9-5,6-12-3-8-12-11.8518-8.6544" transform="translate(0)"/>
      <path class="cls-3" d="M1295.3123,479.5l7.1877,10,5,13.5188,7.5769,6.4812,9.4231,8,7,3-11,10-10,6-9,14-6.1877,14.6364L1286.5,586.5l-5.3054,12-5.647,18-14.0476,11-5,15-10,10-16,5-23,3-16-3-11,5-20,4-20,8-32-10-26-6-19-18-10.7975-16.8454" transform="translate(0)"/>
      <path class="cls-3" d="M1216.0518,793.4128" transform="translate(0)"/>
      <path class="cls-3" d="M1331.5,520.5l46.8238,3.5L1397.5,541.5l29,11,9,16,17.3649,26,10.6351,13v21l-5,30,5,11.3891,10.5413,8.6109h21.1764l22.2823-3.8109" transform="translate(0)"/>
      <path class="cls-3" d="M1473.5,746.9713l-21-11.4713h-18.27l-18.73-11h-27.8585l-18.1415,16-23-1-15-3.7644h-32.8L1283.4535,724.5l-15.9535-7-12-9-26.2582-30,1.2582-21" transform="translate(0)"/>
      <path class="cls-3" d="M1441.5,799.5l-9,8-27,4-40,12-19-10-15,6h-30l-15-12-25-3-16.1641-11.0872L1239.5,781.5l9-9,7-10.2817,10-3.7183-6-18-4-15.5522V708.5" transform="translate(0)"/>
      <path class="cls-3" d="M1375.5,859.5l-6-16,6-11.823,11.0158-14.4817" transform="translate(0)"/>
      <path class="cls-3" d="M1165.5,907.5l8-22,18.6012-26,68.4817-21.1524L1297.5,831.5l4-12" transform="translate(0)"/>
      <path class="cls-3" d="M1458.5.5v28l-13.2586,20h-33.8823l-43.8591-4-26,4" transform="translate(0)"/>
      <path class="cls-3" d="M1445.2414,48.5l-3.3883,25.75L1458.5,120.149v33.0352l-16.6469,6.7765H1410.512L1379.5,151.5l-22-11-24.07-6-21.93-6-41,1-51,25" transform="translate(0)"/>
      <path class="cls-3" d="M1212.6771,189.5h35.2L1268.5,201.4665V220.5l-10.0079,16.4836L1251.5,248.5l-17-7-22-7-13.3054.0017L1166.5,198.5" transform="translate(0)"/>
      <path class="cls-3" d="M1458.5,153.1842l-19,14.3158,7,27,.4355,24.5,18.6352,17.9836,19.9293,37.33V306.5l-16,22-18,13-27,8-34-8-18.9526-12H1332.5l-14-11-11-23.8572-15-30.1428-16.67-16-17.3378-11.5164" transform="translate(0)"/>
      <path class="cls-3" d="M1485.5,306.5l44,19,29,28,7.87,33-22.87,17-44,3-31,17-61.3762,13H1332.5l-25,7,7-40,17-38.5515,1-35.4485" transform="translate(0)"/>
      <path class="cls-3" d="M993.183,245.5" transform="translate(0)"/>
      <path class="cls-3" d="M1008.5,410.4073l-9-13.2706V379.5l-5-21.3279-1.317-14.4L977.4947,329.5V315.8192L982.5,301.5l-6-17-4.0106-15.2689V250.5" transform="translate(0)"/>
      <path class="cls-3" d="M1566.3705,386.5l20.3294,7h50.8l39.835,15.5513L1694.3809,436.5l18.1689,25.013,14.1621,14.2228,17.6455,9.18,17.6833,2.2788h18.88l16.0544-4.5048,14.8665-3.19h19.9813l14.0978,7.6943,9,16.101V520.5l-9,18.0952-14.5,7.5318L1816.2524,560.5l-7.5271,25.7953L1812.5,604.5" transform="translate(0)"/>
      <path class="cls-3" d="M119.5,790.5l17.8852-5.0254L156.5,780.5l12.2263,4.9746L179.5,795.5l4.4733,21.89L179.5,835.5l-2.3031,34,4.5179,12.12-1.9575,11.124.8278,20.5323L176.35,942.501l-6.7765,22.7773L173.5,984.5" transform="translate(0)"/>
    </g>
  </g>
</svg>
