<svg id="Layer_1" data-name="Layer 1" xmlns="http://www.w3.org/2000/svg" viewBox="0 0 484 450">
  <defs>
    <style>
      .cls-1 {
        fill: #fdfffa;
      }

      .cls-2 {
        fill: #f9b1cd;
      }

      .cls-3 {
        fill: #fde77d;
      }
    </style>
  </defs>
  <rect class="cls-1" width="484" height="450"/>
  <path class="cls-2" d="M238.25129,143.0365c22.21066-.08119,40.58741,5.69279,57.09039,17.09445,19.23123,13.28657,32.76975,30.92159,39.31812,53.54712a100.95514,100.95514,0,0,1,3.34548,37.23433c-1.17148,13.331-5.17341,25.81795-10.79891,37.86021a309.49232,309.49232,0,0,1-24.4868,42.19118c-10.70381,15.83247-22.18407,31.07319-34.23608,45.88436-5.44828,6.69563-11.2281,13.12773-16.99475,19.55646-2.9733,3.31463-5.35733,3.43466-8.559.46607-10.4244-9.6658-21.11233-19.08513-31.02175-29.258-10.13383-10.40318-19.81971-21.29418-29.06688-32.495-12.29387-14.89119-23.13195-30.83766-31.30062-48.43464a108.49515,108.49515,0,0,1-9.96474-34.512,97.92439,97.92439,0,0,1,40.046-90.1531,93.189,93.189,0,0,1,28.27508-14.43845C219.76558,144.58768,229.90228,142.71117,238.25129,143.0365Zm-86.7705,98.87611c.481,4.6938.90458,9.39438,1.45514,14.08,1.14555,9.74935,4.73312,18.7549,8.86289,27.52562,5.4879,11.65507,12.49662,22.39949,20.02516,32.8539a379.74516,379.74516,0,0,0,30.64125,36.669c7.02347,7.541,14.47129,14.69135,21.82145,21.92283,3.25479,3.20226,6.82114,6.08784,10.08434,9.28216,1.69625,1.66047,2.754,1.15936,4.0258-.38005,3.43574-4.15844,7.07237-8.158,10.37989-12.41417,10.53694-13.559,21.32861-26.94338,31.30693-40.90547,7.45218-10.42741,14.05808-21.492,20.554-32.55823a132.36387,132.36387,0,0,0,12.66645-28.30428c3.42256-11.20314,5.30942-22.5387,4.32511-34.30312a90.61862,90.61862,0,0,0-6.25522-27.22629A83.13637,83.13637,0,0,0,307.397,185.39688c-8.29177-9.61325-17.80828-17.71435-29.2528-23.243a85.67981,85.67981,0,0,0-42.69041-8.34707,88.79071,88.79071,0,0,0-26.92578,5.43532,85.92845,85.92845,0,0,0-40.56627,31.35312C157.14453,205.93344,151.433,222.95845,151.48079,241.91261Z" transform="translate(-0.01042 0.19569)"/>
  <path class="cls-3" d="M288.97948,241.97566c.06875,26.32622-21.73465,48.836-48.40029,48.93727a49.48115,49.48115,0,0,1-50.11049-49.59658c.06474-26.20968,22.05833-49.05863,50.07161-48.90234C266.87188,192.56093,289.6501,214.94629,288.97948,241.97566Zm-49.57577-39.01232c-20.65482-.12957-38.27486,17.34114-38.34551,38.06758-.07452,21.8661,17.1561,39.92809,39.55281,39.20868,21.5395-.69188,38.408-17.7834,37.8128-39.8789A38.77734,38.77734,0,0,0,239.40371,202.96334Z" transform="translate(-0.01042 0.19569)"/>
  <rect class="cls-3" x="289" y="399.99999" width="49" height="8.00001" rx="4"/>
  <rect class="cls-3" x="172" y="400" width="49" height="8.00001" rx="4"/>
</svg>
