<svg id="Layer_1" data-name="Layer 1" xmlns="http://www.w3.org/2000/svg" viewBox="0 0 48.36 98.68">
  <g id="seven_rails">
    <g>
      <rect x="1.88" y="3.58" width="7.1" height="9.12" transform="translate(-3.58 12.73) rotate(-90)"/>
      <rect x="2.09" y="6.99" width="14.06" height="1.74" transform="translate(0.39 16.14) rotate(-90)"/>
      <rect x="6.24" y="7.26" width="14.06" height="1.74" transform="translate(4.27 20.58) rotate(-90)"/>
      <rect x="20.93" y="-3.95" width="7.1" height="24.17" transform="translate(15.48 31.79) rotate(-90)"/>
      <rect x="40.49" y="2.95" width="7.1" height="10.37" transform="translate(51.3 -36.73) rotate(90)"/>
      <rect x="32.7" y="6.99" width="14.06" height="1.74" transform="translate(46.71 -32.7) rotate(90)"/>
      <rect x="28.66" y="6.99" width="14.06" height="1.74" transform="translate(42.68 -28.66) rotate(90)"/>
    </g>
    <g>
      <rect x="1.88" y="31.69" width="7.1" height="9.12" transform="translate(-31.69 40.85) rotate(-90)"/>
      <rect x="2.09" y="35.1" width="14.06" height="1.74" transform="translate(-27.73 44.26) rotate(-90)"/>
      <rect x="6.24" y="35.38" width="14.06" height="1.74" transform="translate(-23.85 48.69) rotate(-90)"/>
      <rect x="20.93" y="24.17" width="7.1" height="24.17" transform="translate(-12.64 59.9) rotate(-90)"/>
      <rect x="40.49" y="31.07" width="7.1" height="10.37" transform="translate(79.42 -8.62) rotate(90)"/>
      <rect x="32.7" y="35.1" width="14.06" height="1.74" transform="translate(74.83 -4.58) rotate(90)"/>
      <rect x="28.66" y="35.1" width="14.06" height="1.74" transform="translate(70.8 -0.55) rotate(90)"/>
    </g>
    <g>
      <rect x="1.88" y="17.63" width="7.1" height="9.12" transform="translate(-17.63 26.79) rotate(-90)"/>
      <rect x="2.09" y="21.04" width="14.06" height="1.74" transform="translate(-13.67 30.2) rotate(-90)"/>
      <rect x="6.24" y="21.32" width="14.06" height="1.74" transform="translate(-9.79 34.63) rotate(-90)"/>
      <rect x="20.93" y="10.11" width="7.1" height="24.17" transform="translate(1.42 45.85) rotate(-90)"/>
      <rect x="40.49" y="17.01" width="7.1" height="10.37" transform="translate(65.36 -22.68) rotate(90)"/>
      <rect x="32.7" y="21.04" width="14.06" height="1.74" transform="translate(60.77 -18.64) rotate(90)"/>
      <rect x="28.66" y="21.04" width="14.06" height="1.74" transform="translate(56.74 -14.61) rotate(90)"/>
    </g>
    <g>
      <rect x="1.88" y="59.81" width="7.1" height="9.12" transform="translate(-59.81 68.97) rotate(-90)"/>
      <rect x="2.09" y="63.22" width="14.06" height="1.74" transform="translate(-55.85 72.38) rotate(-90)"/>
      <rect x="6.24" y="63.5" width="14.06" height="1.74" transform="translate(-51.97 76.81) rotate(-90)"/>
      <rect x="20.93" y="52.28" width="7.1" height="24.17" transform="translate(-40.76 88.02) rotate(-90)"/>
      <rect x="40.49" y="59.18" width="7.1" height="10.37" transform="translate(107.54 19.5) rotate(90)"/>
      <rect x="32.7" y="63.22" width="14.06" height="1.74" transform="translate(102.95 23.54) rotate(90)"/>
      <rect x="28.66" y="63.22" width="14.06" height="1.74" transform="translate(98.91 27.57) rotate(90)"/>
    </g>
    <g>
      <rect x="1.88" y="45.75" width="7.1" height="9.12" transform="translate(-45.75 54.91) rotate(-90)"/>
      <rect x="2.09" y="49.16" width="14.06" height="1.74" transform="translate(-41.79 58.32) rotate(-90)"/>
      <rect x="6.24" y="49.44" width="14.06" height="1.74" transform="translate(-37.91 62.75) rotate(-90)"/>
      <rect x="20.93" y="38.23" width="7.1" height="24.17" transform="translate(-26.7 73.96) rotate(-90)"/>
      <rect x="40.49" y="45.12" width="7.1" height="10.37" transform="translate(93.48 5.44) rotate(90)"/>
      <rect x="32.7" y="49.16" width="14.06" height="1.74" transform="translate(88.89 9.48) rotate(90)"/>
      <rect x="28.66" y="49.16" width="14.06" height="1.74" transform="translate(84.86 13.51) rotate(90)"/>
    </g>
    <g>
      <rect x="1.88" y="87.93" width="7.1" height="9.12" transform="translate(-87.93 97.08) rotate(-90)"/>
      <rect x="2.09" y="91.34" width="14.06" height="1.74" transform="translate(-83.96 100.49) rotate(-90)"/>
      <rect x="6.24" y="91.61" width="14.06" height="1.74" transform="translate(-80.08 104.93) rotate(-90)"/>
      <rect x="20.93" y="80.4" width="7.1" height="24.17" transform="translate(-68.87 116.14) rotate(-90)"/>
      <rect x="40.49" y="87.3" width="7.1" height="10.37" transform="translate(135.65 47.61) rotate(90)"/>
      <rect x="32.7" y="91.34" width="14.06" height="1.74" transform="translate(131.06 51.65) rotate(90)"/>
      <rect x="28.66" y="91.34" width="14.06" height="1.74" transform="translate(127.03 55.68) rotate(90)"/>
    </g>
    <g>
      <rect x="1.88" y="73.87" width="7.1" height="9.12" transform="translate(-73.87 83.03) rotate(-90)"/>
      <rect x="2.09" y="77.28" width="14.06" height="1.74" transform="translate(-69.9 86.44) rotate(-90)"/>
      <rect x="6.24" y="77.55" width="14.06" height="1.74" transform="translate(-66.03 90.87) rotate(-90)"/>
      <rect x="20.93" y="66.34" width="7.1" height="24.17" transform="translate(-54.81 102.08) rotate(-90)"/>
      <rect x="40.49" y="73.24" width="7.1" height="10.37" transform="translate(121.6 33.56) rotate(90)"/>
      <rect x="32.7" y="77.28" width="14.06" height="1.74" transform="translate(117 37.59) rotate(90)"/>
      <rect x="28.66" y="77.28" width="14.06" height="1.74" transform="translate(112.97 41.63) rotate(90)"/>
    </g>
  </g>
</svg>